<svg width="274" height="182" viewBox="0 0 274 182" fill="none" xmlns="http://www.w3.org/2000/svg">
<path d="M263.29 121.798C261.311 123.966 258.857 125.58 256.195 126.833H256.192C255.941 126.952 255.691 127.068 255.437 127.178H255.434L255.43 127.181L255.427 127.178H255.424L255.424 127.179L255.423 127.18L255.422 127.181L255.421 127.181H255.418L255.414 127.178C255.411 127.181 255.411 127.181 255.408 127.178L255.405 127.181L255.402 127.178H255.398C255.395 127.181 255.395 127.181 255.392 127.178H255.389C253.607 127.951 251.776 128.607 249.909 129.143C238.932 132.266 227.393 132.871 216.151 130.911C215.936 130.873 215.724 130.834 215.508 130.795V104.668C215.72 104.578 215.936 104.487 216.151 104.4C217.554 103.817 218.975 103.282 220.413 102.793C222.481 102.084 224.578 101.477 226.705 100.97C233.641 99.2859 240.799 98.7054 247.915 99.2496C249.209 99.3462 250.5 99.4858 251.788 99.6684C254.483 100.045 257.309 100.702 259.795 101.843H259.798C260.161 102.013 260.518 102.191 260.871 102.381C263.081 103.582 264.944 105.235 266.081 107.499C266.489 108.313 266.783 109.179 266.954 110.073V110.079C267.018 110.389 267.063 110.701 267.099 111.01C267.503 114.824 265.926 118.906 263.29 121.798Z" fill="#F2F2F2"/>
<path d="M267.099 111.01C267.067 111.018 267.035 111.023 267.002 111.023C261.501 111.265 256.006 111.623 250.52 112.099H250.51C250.488 112.102 250.468 112.102 250.446 112.106C244.813 112.595 239.191 113.208 233.581 113.945C233.343 113.977 233.109 114.009 232.874 114.038C228.995 114.557 225.122 115.132 221.257 115.765C219.552 116.045 217.85 116.337 216.151 116.641C215.936 116.68 215.724 116.715 215.508 116.757V115.781C215.724 115.739 215.939 115.704 216.151 115.665C221.81 114.66 227.488 113.783 233.186 113.033C234.618 112.84 236.053 112.657 237.49 112.486C241.639 111.983 245.795 111.549 249.958 111.184C250.263 111.158 250.565 111.133 250.87 111.107C256.198 110.653 261.534 110.308 266.877 110.073C266.903 110.072 266.929 110.074 266.954 110.079C267.468 110.124 267.577 110.898 267.099 111.01Z" fill="white"/>
<path d="M255.673 126.229C248.819 126.279 242.067 123.364 237.219 118.54C235.851 117.173 234.646 115.652 233.627 114.007C233.3 113.482 232.536 114.061 232.86 114.582C236.625 120.639 242.896 124.953 249.811 126.539C251.775 126.985 253.783 127.201 255.796 127.181C256.411 127.177 256.284 126.224 255.673 126.229V126.229Z" fill="white"/>
<path d="M226.705 100.97C226.675 101.06 226.623 101.142 226.552 101.205C226.482 101.269 226.396 101.314 226.303 101.334C224.732 101.747 223.215 102.341 221.781 103.105C219.687 104.215 217.786 105.656 216.151 107.374C216.064 107.461 215.981 107.548 215.9 107.638C215.765 107.779 215.637 107.924 215.508 108.073V106.668C215.714 106.449 215.929 106.233 216.151 106.027C217.442 104.787 218.872 103.702 220.413 102.793C222.481 102.084 224.578 101.477 226.705 100.97Z" fill="white"/>
<path d="M260.363 101.589C256.004 103.468 252.356 106.694 249.95 110.797C249.902 110.914 249.901 111.046 249.949 111.164C249.996 111.282 250.088 111.376 250.205 111.426C250.322 111.473 250.453 111.472 250.57 111.425C250.686 111.377 250.781 111.286 250.832 111.171C253.128 107.296 256.592 104.252 260.723 102.479C261.29 102.236 260.931 101.345 260.363 101.589L260.363 101.589Z" fill="white"/>
<path d="M273.506 74.2302C272.761 77.0714 271.332 79.6451 269.556 81.9934L269.553 81.9966C269.389 82.2157 269.219 82.438 269.042 82.6506V82.6538C267.809 84.1774 266.477 85.6183 265.056 86.967C259.947 91.85 254.177 95.985 247.915 99.2496C238.065 104.41 227.055 107.461 216.151 107.634C216.067 107.638 215.984 107.638 215.9 107.638C215.769 107.641 215.637 107.641 215.508 107.641V93.0004C215.717 92.601 215.932 92.2015 216.151 91.8053C218.984 86.6915 222.44 81.9501 226.438 77.6898C226.534 77.5835 226.634 77.4773 226.734 77.3742C228.237 75.7829 229.812 74.2678 231.461 72.829C237.804 67.2357 245.134 62.8819 253.073 59.9924C255.633 59.0711 258.44 58.3334 261.17 58.1885C261.571 58.1659 261.97 58.1563 262.371 58.1595C264.886 58.1949 267.298 58.7908 269.357 60.2662C270.094 60.7972 270.755 61.4269 271.322 62.1377C271.521 62.3857 271.704 62.6402 271.881 62.9011V62.9044C274.007 66.0934 274.502 70.4388 273.506 74.2302Z" fill="#F2F2F2"/>
<path d="M271.881 62.9011V62.9044C271.857 62.9252 271.832 62.9435 271.804 62.9591C267.051 65.7326 262.357 68.607 257.724 71.5824C257.717 71.5856 257.714 71.5888 257.708 71.592C257.689 71.605 257.67 71.6168 257.65 71.6275C252.887 74.6877 248.191 77.8509 243.563 81.1173C243.37 81.2525 243.174 81.3911 242.979 81.5296C239.783 83.7941 236.62 86.107 233.491 88.4681C227.581 92.9328 221.801 97.5627 216.151 102.358C215.936 102.538 215.724 102.722 215.508 102.906V101.653C215.721 101.469 215.936 101.285 216.151 101.105C218.316 99.2721 220.5 97.465 222.703 95.6837C223.361 95.1522 224.023 94.6207 224.684 94.0956C230.562 89.4023 236.571 84.8839 242.712 80.5406H242.715C243.923 79.687 245.133 78.8409 246.344 78.0023C249.787 75.625 253.269 73.3047 256.789 71.0412C257.043 70.8769 257.3 70.7127 257.557 70.5484C262.063 67.6621 266.628 64.8704 271.252 62.1731C271.274 62.1594 271.298 62.1475 271.322 62.1377C271.804 61.9444 272.257 62.5822 271.881 62.9011Z" fill="white"/>
<path d="M268.813 81.7014C262.767 84.9393 255.438 85.5039 248.91 83.49C247.066 82.9172 245.294 82.1319 243.63 81.1499C243.097 80.8367 242.688 81.7062 243.217 82.0167C249.356 85.6256 256.908 86.5242 263.766 84.7074C265.711 84.1878 267.59 83.4429 269.364 82.4877C269.906 82.1973 269.352 81.413 268.813 81.7014V81.7014Z" fill="white"/>
<path d="M223.577 93.4874C223.277 91.8011 223.175 90.0856 223.271 88.3755C223.487 84.4754 224.678 80.6925 226.733 77.3748C228.238 75.784 229.814 74.2687 231.462 72.8289C231.478 72.923 231.468 73.0196 231.435 73.1092C231.402 73.1987 231.347 73.278 231.274 73.3394C230.075 74.4369 229.007 75.67 228.09 77.014C224.818 81.8041 223.541 87.6867 224.531 93.4077C224.547 93.4725 224.546 93.5405 224.529 93.6049C224.511 93.6694 224.477 93.7282 224.43 93.7758C224.362 93.8358 224.279 93.8767 224.189 93.8945C224.1 93.9123 224.007 93.9063 223.921 93.8771C223.835 93.848 223.758 93.7966 223.697 93.7283C223.637 93.6599 223.595 93.5768 223.577 93.4874Z" fill="white"/>
<path d="M261.555 57.6963C258.564 61.3919 256.828 65.9482 256.598 70.7021C256.609 70.8287 256.67 70.9458 256.767 71.0279C256.863 71.1101 256.988 71.1506 257.115 71.1408C257.24 71.1273 257.356 71.066 257.437 70.9694C257.519 70.8729 257.56 70.7486 257.552 70.6223C257.791 66.1212 259.448 61.8122 262.286 58.3168C262.675 57.8376 261.945 57.2161 261.555 57.6963Z" fill="white"/>
<path d="M228.294 68.2805V68.2838C228.272 68.5608 228.246 68.8346 228.217 69.1084V69.1148C227.994 71.0638 227.645 72.9963 227.173 74.9002C226.949 75.8343 226.705 76.7621 226.438 77.6898C226.406 77.809 226.37 77.9282 226.335 78.0441V78.0473C225.551 80.7455 224.614 83.3966 223.528 85.9877C221.531 90.7582 219.059 95.3146 216.151 99.5878C215.942 99.9002 215.727 100.213 215.508 100.522V50.0773C215.724 50.0644 215.936 50.0644 216.151 50.0709C216.253 50.0709 216.356 50.0741 216.459 50.0805C217.365 50.1283 218.26 50.3029 219.119 50.5992C219.42 50.699 219.713 50.8118 220.002 50.9374C223.506 52.4772 226.258 55.8723 227.453 59.6058C228.349 62.4018 228.529 65.3428 228.294 68.2805Z" fill="#F2F2F2"/>
<path d="M220.002 50.9375C219.994 50.9691 219.982 50.9994 219.966 51.0277C218.666 53.5628 217.394 56.1108 216.151 58.6717C215.936 59.113 215.72 59.5575 215.508 59.9988V57.8084C215.72 57.3703 215.935 56.9322 216.151 56.4941C217.111 54.542 218.088 52.5986 219.08 50.6637C219.091 50.6411 219.104 50.6195 219.118 50.5992C219.414 50.174 220.146 50.4639 220.002 50.9375Z" fill="white"/>
<path d="M228.397 68.7992C228.339 68.9023 228.282 69.0054 228.217 69.1085C227.274 70.7568 226.152 72.2953 224.871 73.6955C222.41 76.373 219.447 78.5371 216.151 80.0639C215.939 80.167 215.724 80.2636 215.508 80.3538V79.3069C215.724 79.2103 215.939 79.1104 216.151 79.0073C220.922 76.7249 224.885 73.0366 227.511 68.4352C227.549 68.3695 227.6 68.3128 227.662 68.2688C227.724 68.2248 227.794 68.1946 227.868 68.1802C227.942 68.1659 228.019 68.1677 228.093 68.1856C228.166 68.2034 228.235 68.237 228.294 68.2838C228.335 68.3109 228.37 68.3457 228.397 68.3862C228.424 68.4268 228.443 68.4723 228.452 68.5202C228.462 68.568 228.462 68.6173 228.452 68.6652C228.443 68.7131 228.424 68.7586 228.397 68.7992Z" fill="white"/>
<path d="M216.151 10.6301V35.1115H215.508V34.8506H0.64235V35.1115H0V10.6301C0.00275837 7.81166 1.1203 5.10946 3.10735 3.11654C5.09441 1.12361 7.78865 0.00276652 10.5988 0H205.552C208.362 0.00276652 211.056 1.12361 213.043 3.11654C215.03 5.10946 216.148 7.81166 216.151 10.6301Z" fill="#00917C"/>
<path d="M205.552 0H10.5988C7.78865 0.00276652 5.09441 1.12361 3.10735 3.11653C1.1203 5.10946 0.00275837 7.81166 0 10.6301V150.432C0.00275837 153.25 1.1203 155.952 3.10735 157.945C5.09441 159.938 7.78865 161.059 10.5988 161.062H205.552C208.362 161.059 211.056 159.938 213.043 157.945C215.03 155.952 216.148 153.25 216.151 150.432V10.6301C216.148 7.81166 215.03 5.10946 213.043 3.11653C211.056 1.12361 208.362 0.00276652 205.552 0ZM215.508 150.432C215.505 153.079 214.455 155.617 212.589 157.489C210.722 159.361 208.192 160.414 205.552 160.418H10.5988C7.9592 160.414 5.4287 159.361 3.56224 157.489C1.69577 155.617 0.645718 153.079 0.64235 150.432V10.6301C0.645718 7.98272 1.69577 5.44474 3.56224 3.57277C5.4287 1.70079 7.9592 0.647626 10.5988 0.644248H205.552C208.192 0.647627 210.722 1.70079 212.589 3.57277C214.455 5.44474 215.505 7.98272 215.508 10.6301V150.432Z" fill="#3F3D56"/>
<path d="M43.6798 23.9982C47.2274 23.9982 50.1033 21.1138 50.1033 17.5558C50.1033 13.9977 47.2274 11.1133 43.6798 11.1133C40.1322 11.1133 37.2563 13.9977 37.2563 17.5558C37.2563 21.1138 40.1322 23.9982 43.6798 23.9982Z" fill="white"/>
<path d="M172.471 23.9982C176.019 23.9982 178.894 21.1138 178.894 17.5558C178.894 13.9977 176.019 11.1133 172.471 11.1133C168.923 11.1133 166.047 13.9977 166.047 17.5558C166.047 21.1138 168.923 23.9982 172.471 23.9982Z" fill="white"/>
<path d="M62.2388 89.39H24.0266C22.4077 89.3881 20.8557 88.7423 19.711 87.5942C18.5663 86.4462 17.9224 84.8896 17.9206 83.2659V65.1521C17.9224 63.5284 18.5663 61.9718 19.711 60.8237C20.8557 59.6757 22.4077 59.0299 24.0266 59.028H62.2388C63.8576 59.0299 65.4097 59.6757 66.5544 60.8237C67.6991 61.9718 68.343 63.5284 68.3448 65.1521V83.2659C68.343 84.8896 67.6991 86.4462 66.5544 87.5942C65.4097 88.7423 63.8576 89.3881 62.2388 89.39Z" fill="#00917C"/>
<path d="M127.244 89.39H89.0319C87.4131 89.3881 85.8611 88.7423 84.7164 87.5942C83.5717 86.4462 82.9278 84.8896 82.9259 83.2659V65.1521C82.9278 63.5284 83.5717 61.9718 84.7164 60.8237C85.8611 59.6757 87.4131 59.0299 89.0319 59.028H127.244C128.863 59.0299 130.415 59.6757 131.56 60.8237C132.704 61.9718 133.348 63.5284 133.35 65.1521V83.2659C133.348 84.8896 132.704 86.4462 131.56 87.5942C130.415 88.7423 128.863 89.3881 127.244 89.39Z" fill="#00917C"/>
<path d="M127.244 136.192H89.0319C87.364 136.19 85.765 135.525 84.5856 134.342C83.4062 133.159 82.7428 131.555 82.7409 129.882V111.768C82.7428 110.095 83.4062 108.491 84.5856 107.309C85.765 106.126 87.364 105.46 89.0319 105.458H127.244C128.912 105.46 130.511 106.126 131.69 107.309C132.87 108.491 133.533 110.095 133.535 111.768V129.882C133.533 131.555 132.87 133.159 131.69 134.342C130.511 135.525 128.912 136.19 127.244 136.192Z" fill="#F2F2F2"/>
<path d="M62.1135 136.192H23.9013C22.2334 136.19 20.6343 135.525 19.4549 134.342C18.2755 133.159 17.6121 131.555 17.6103 129.882V111.768C17.6121 110.095 18.2755 108.491 19.4549 107.309C20.6343 106.126 22.2334 105.46 23.9013 105.458H62.1135C63.7814 105.46 65.3804 106.126 66.5598 107.309C67.7392 108.491 68.4026 110.095 68.4045 111.768V129.882C68.4026 131.555 67.7392 133.159 66.5598 134.342C65.3804 135.525 63.7814 136.19 62.1135 136.192Z" fill="#F2F2F2"/>
<path d="M192.249 136.192H154.037C152.369 136.19 150.77 135.525 149.591 134.342C148.412 133.159 147.748 131.555 147.746 129.882V111.768C147.748 110.095 148.412 108.491 149.591 107.309C150.77 106.126 152.369 105.46 154.037 105.458H192.249C193.917 105.46 195.516 106.126 196.696 107.309C197.875 108.491 198.539 110.095 198.54 111.768V129.882C198.539 131.555 197.875 133.159 196.696 134.342C195.516 135.525 193.917 136.19 192.249 136.192Z" fill="#F2F2F2"/>
<path d="M192.249 89.4264H154.037C152.369 89.4245 150.77 88.7592 149.591 87.5763C148.412 86.3934 147.748 84.7896 147.746 83.1168V65.0027C147.748 63.3299 148.412 61.7261 149.591 60.5432C150.77 59.3604 152.369 58.695 154.037 58.6931H192.249C193.917 58.695 195.516 59.3604 196.696 60.5432C197.875 61.7261 198.539 63.3299 198.54 65.0027V83.1168C198.539 84.7896 197.875 86.3934 196.696 87.5763C195.516 88.7592 193.917 89.4245 192.249 89.4264Z" fill="#F2F2F2"/>
<path d="M43.1327 84.6013C48.8553 84.6013 53.4944 79.9485 53.4944 74.209C53.4944 68.4695 48.8553 63.8167 43.1327 63.8167C37.4101 63.8167 32.771 68.4695 32.771 74.209C32.771 79.9485 37.4101 84.6013 43.1327 84.6013Z" fill="white"/>
<path d="M42.1056 78.1734C41.8725 78.1739 41.6455 78.0982 41.459 77.958L41.4474 77.9493L39.0124 76.0794C38.8994 75.9928 38.8046 75.8847 38.7334 75.7614C38.6621 75.638 38.6158 75.5017 38.5971 75.3604C38.5783 75.2191 38.5876 75.0754 38.6242 74.9376C38.6609 74.7999 38.7243 74.6707 38.8107 74.5576C38.8972 74.4444 39.0051 74.3494 39.1281 74.2781C39.2512 74.2067 39.3871 74.1604 39.5281 74.1417C39.669 74.1231 39.8122 74.1325 39.9495 74.1694C40.0868 74.2063 40.2156 74.27 40.3283 74.3568L41.9056 75.5698L45.6329 70.6945C45.7193 70.5815 45.8271 70.4866 45.9501 70.4153C46.0732 70.344 46.209 70.2977 46.3498 70.279C46.4907 70.2604 46.6338 70.2698 46.771 70.3066C46.9083 70.3434 47.0369 70.407 47.1497 70.4937L47.1265 70.5253L47.1503 70.4942C47.3777 70.6695 47.5265 70.9281 47.564 71.2133C47.6016 71.4985 47.5248 71.787 47.3505 72.0155L42.9663 77.75C42.8649 77.8821 42.7345 77.9891 42.5852 78.0625C42.436 78.1359 42.2718 78.1739 42.1056 78.1734Z" fill="#00917C"/>
<path d="M108.323 84.4521C114.046 84.4521 118.685 79.7993 118.685 74.0598C118.685 68.3203 114.046 63.6675 108.323 63.6675C102.6 63.6675 97.9614 68.3203 97.9614 74.0598C97.9614 79.7993 102.6 84.4521 108.323 84.4521Z" fill="white"/>
<path d="M107.296 78.0242C107.063 78.0246 106.836 77.949 106.649 77.8088L106.638 77.8001L104.203 75.9302C103.975 75.7552 103.826 75.4966 103.788 75.2113C103.751 74.926 103.827 74.6374 104.002 74.409C104.176 74.1806 104.434 74.031 104.719 73.9933C105.003 73.9555 105.291 74.0326 105.519 74.2076L107.096 75.4206L110.823 70.5453C110.91 70.4322 111.017 70.3373 111.141 70.266C111.264 70.1948 111.399 70.1485 111.54 70.1298C111.681 70.1112 111.824 70.1205 111.961 70.1574C112.099 70.1942 112.227 70.2578 112.34 70.3445L112.317 70.3761L112.341 70.345C112.568 70.5203 112.717 70.7789 112.754 71.0641C112.792 71.3493 112.715 71.6378 112.541 71.8662L108.157 77.6008C108.055 77.7329 107.925 77.8399 107.776 77.9133C107.626 77.9867 107.462 78.0247 107.296 78.0242Z" fill="#00917C"/>
<path d="M178.352 123.1C178.693 122.726 178.947 122.283 179.098 121.8C179.249 121.317 179.293 120.807 179.226 120.306C179.159 119.804 178.984 119.324 178.712 118.898C178.44 118.472 178.078 118.111 177.651 117.84L171.867 86.8606L164.831 89.4771L172.73 119.106C172.324 119.854 172.206 120.726 172.398 121.556C172.591 122.385 173.08 123.115 173.773 123.608C174.466 124.1 175.315 124.32 176.159 124.226C177.003 124.133 177.783 123.732 178.352 123.1Z" fill="#A0616A"/>
<path d="M122.216 75.8281C122.233 76.0205 122.236 76.2139 122.223 76.4067L135.902 86.9658L139.781 85.3682L142.95 90.9245L136.357 94.4221C135.824 94.7046 135.215 94.8063 134.619 94.7118C134.024 94.6172 133.476 94.3316 133.056 93.8978L119.384 79.7601C118.66 79.9238 117.903 79.8626 117.215 79.5847C116.527 79.3068 115.939 78.8253 115.531 78.2043C115.122 77.5833 114.911 76.8522 114.927 76.1082C114.943 75.3643 115.184 74.6427 115.618 74.0396C116.053 73.4364 116.66 72.9802 117.359 72.7316C118.059 72.483 118.817 72.4539 119.533 72.6481C120.249 72.8422 120.89 73.2505 121.369 73.8185C121.848 74.3866 122.143 75.0875 122.216 75.8281H122.216Z" fill="#A0616A"/>
<path d="M154.173 178.086H150.236L148.362 166.075L154.174 166.075L154.173 178.086Z" fill="#A0616A"/>
<path d="M155.177 181.914L142.481 181.914V181.753C142.481 181.102 142.609 180.457 142.857 179.856C143.106 179.255 143.47 178.708 143.928 178.248C144.387 177.788 144.932 177.423 145.532 177.174C146.131 176.924 146.774 176.796 147.423 176.796H147.423L155.178 176.797L155.177 181.914Z" fill="#2F2E41"/>
<path d="M168.947 178.086H165.01L163.136 166.075L168.948 166.075L168.947 178.086Z" fill="#A0616A"/>
<path d="M169.951 181.914L157.255 181.914V181.753C157.255 181.102 157.383 180.457 157.631 179.856C157.88 179.255 158.244 178.708 158.703 178.248C159.161 177.788 159.706 177.423 160.306 177.174C160.905 176.924 161.548 176.796 162.197 176.796H162.197L169.952 176.797L169.951 181.914Z" fill="#2F2E41"/>
<path d="M149.418 175.712C149.059 175.712 148.712 175.578 148.446 175.335C148.18 175.093 148.014 174.759 147.981 174.4L144.549 128.114L144.712 128.101L168.325 126.155L168.331 126.323L170.208 174.271C170.215 174.466 170.184 174.66 170.114 174.842C170.045 175.024 169.94 175.191 169.805 175.331C169.67 175.471 169.508 175.583 169.329 175.659C169.151 175.736 168.958 175.775 168.764 175.775H164.134C163.788 175.776 163.454 175.653 163.191 175.427C162.929 175.202 162.756 174.889 162.706 174.546L156.418 135.812C156.412 135.772 156.391 135.736 156.359 135.711C156.328 135.685 156.288 135.673 156.248 135.676C156.208 135.679 156.17 135.697 156.142 135.726C156.115 135.756 156.099 135.795 156.099 135.835L155.814 174.079C155.811 174.448 155.667 174.803 155.413 175.07C155.159 175.337 154.812 175.496 154.444 175.516L149.496 175.71C149.47 175.711 149.444 175.712 149.418 175.712Z" fill="#2F2E41"/>
<path d="M153.448 69.6192C157.805 69.6192 161.337 66.077 161.337 61.7075C161.337 57.338 157.805 53.7958 153.448 53.7958C149.092 53.7958 145.56 57.338 145.56 61.7075C145.56 66.077 149.092 69.6192 153.448 69.6192Z" fill="#A0616A"/>
<path d="M154.975 131.066C151.528 131.056 148.096 130.586 144.772 129.668C144.452 129.574 144.174 129.373 143.985 129.098C143.796 128.823 143.707 128.491 143.733 128.158C144.795 112.151 145.045 99.7284 142.812 91.1335C141.86 87.4702 142.292 83.6122 143.997 80.5485C146.563 75.938 151.28 73.1318 156.311 73.2287C156.551 73.2332 156.794 73.2418 157.039 73.2545C164.675 73.6488 170.624 80.5765 170.302 88.6977L168.766 127.407C168.761 127.689 168.672 127.964 168.511 128.196C168.35 128.427 168.124 128.606 167.862 128.71C163.742 130.264 159.377 131.062 154.975 131.066Z" fill="#3F3D56"/>
<path d="M144.11 94.1055L138.201 86.8434C138.033 86.6368 137.911 86.3962 137.844 86.1382C137.777 85.8801 137.766 85.6105 137.812 85.3479C137.858 85.0852 137.96 84.8357 138.111 84.6161C138.262 84.3966 138.459 84.2123 138.687 84.0758L146.691 79.2922C147.75 78.4353 149.105 78.0345 150.458 78.1778C151.811 78.3211 153.052 78.9967 153.909 80.0565C154.767 81.1163 155.17 82.4738 155.03 83.8312C154.891 85.1887 154.221 86.4354 153.166 87.2978L146.911 94.1826C146.731 94.3797 146.512 94.5357 146.267 94.64C146.023 94.7444 145.758 94.7946 145.493 94.7873C145.227 94.78 144.966 94.7153 144.727 94.5976C144.488 94.48 144.278 94.3121 144.11 94.1055Z" fill="#3F3D56"/>
<path d="M162.698 93.1943C162.455 93.0854 162.238 92.9252 162.063 92.7247C161.888 92.5243 161.758 92.2882 161.681 92.0327L159.021 83.1082C158.444 81.8724 158.379 80.4573 158.84 79.1734C159.302 77.8894 160.252 76.8414 161.483 76.2592C162.713 75.677 164.124 75.6082 165.405 76.0677C166.687 76.5273 167.734 77.4777 168.317 78.7107L173.461 86.5023C173.608 86.7247 173.705 86.9762 173.747 87.2397C173.788 87.5032 173.772 87.7725 173.7 88.0292C173.628 88.2859 173.502 88.5241 173.329 88.7275C173.157 88.9309 172.944 89.0946 172.703 89.2077L164.239 93.1815C163.998 93.2947 163.735 93.3544 163.47 93.3566C163.204 93.3588 162.94 93.3035 162.698 93.1943Z" fill="#3F3D56"/>
<path d="M157.347 68.1992L151.499 66.8569C150.896 66.7184 150.171 66.4543 150.088 65.8394C149.975 65.0131 151.161 64.4375 151.052 63.6108C150.946 62.8101 149.866 62.7069 149.096 62.4705C148.378 62.2182 147.787 61.6958 147.447 61.014C147.107 60.3322 147.045 59.5445 147.274 58.8175C146.44 59.9952 144.537 60.0961 143.456 59.142C142.375 58.1878 142.168 56.4567 142.817 55.1677C143.168 54.5345 143.662 53.9933 144.261 53.588C144.859 53.1827 145.545 52.9249 146.261 52.8353C147.702 52.6715 149.159 52.9438 150.444 53.6174C150.53 52.7047 151.666 52.3347 152.58 52.3265C154.478 52.3487 156.323 52.964 157.857 54.0867C159.39 55.2095 160.537 56.7838 161.137 58.5907C162.258 62.2152 161.508 66.1884 158.37 68.3091L157.347 68.1992Z" fill="#2F2E41"/>
<path d="M216.243 182H93.8754C93.7902 182 93.7085 181.966 93.6483 181.906C93.5881 181.845 93.5542 181.763 93.5542 181.678C93.5542 181.592 93.5881 181.511 93.6483 181.45C93.7085 181.39 93.7902 181.356 93.8754 181.356H216.243C216.328 181.356 216.41 181.39 216.47 181.45C216.53 181.511 216.564 181.592 216.564 181.678C216.564 181.763 216.53 181.845 216.47 181.906C216.41 181.966 216.328 182 216.243 182Z" fill="#3F3D56"/>
</svg>
