<svg width="255" height="231" viewBox="0 0 255 231" fill="none" xmlns="http://www.w3.org/2000/svg">
<g clip-path="url(#clip0)">
<path d="M127.5 82.4528H127.5C132.146 82.4528 136.746 83.3667 141.038 85.1424C145.33 86.9181 149.23 89.5208 152.515 92.8019C155.8 96.0829 158.406 99.9781 160.184 104.265C161.961 108.552 162.877 113.147 162.877 117.787V202.444H92.1234V117.787C92.1234 113.147 93.0385 108.552 94.8163 104.265C96.5941 99.9781 99.1999 96.0829 102.485 92.8019C105.77 89.5208 109.67 86.9181 113.962 85.1424C118.254 83.3667 122.854 82.4528 127.5 82.4528Z" fill="#E6E6E6"/>
<path d="M115.226 124.934H108.873V145.99H115.226V124.934Z" fill="white"/>
<path d="M138.041 147.721H116.959V166.758H138.041V147.721Z" fill="white"/>
<path d="M138.041 124.934H116.959V145.99H138.041V124.934Z" fill="white"/>
<path d="M139.773 123.203H146.127V122.77C146.129 120.121 145.563 117.502 144.467 115.089C143.371 112.676 141.771 110.525 139.773 108.782V123.203Z" fill="white"/>
<path d="M116.959 123.203H138.041V107.433C134.941 105.3 131.264 104.161 127.5 104.166C123.736 104.161 120.059 105.3 116.959 107.433V123.203Z" fill="white"/>
<path d="M115.226 147.721H108.873V162.143C108.873 163.367 109.36 164.54 110.226 165.406C111.093 166.271 112.268 166.758 113.494 166.758H115.226V147.721Z" fill="white"/>
<path d="M139.773 147.721V166.758H141.506C142.732 166.758 143.907 166.271 144.773 165.406C145.64 164.54 146.127 163.367 146.127 162.143V147.721H139.773Z" fill="white"/>
<path d="M115.226 123.203V108.782C113.229 110.525 111.628 112.676 110.532 115.089C109.437 117.502 108.871 120.121 108.873 122.77V123.203H115.226Z" fill="white"/>
<path d="M146.127 124.934H139.773V145.99H146.127V124.934Z" fill="white"/>
<path d="M157.823 152.912C159.896 152.912 161.577 151.234 161.577 149.163C161.577 147.092 159.896 145.413 157.823 145.413C155.749 145.413 154.068 147.092 154.068 149.163C154.068 151.234 155.749 152.912 157.823 152.912Z" fill="#3F3D56"/>
<path d="M39.465 113.175H34.4784V129.702H39.465V113.175Z" fill="#F2F2F2"/>
<path d="M57.3714 113.175H40.825V129.702H57.3714V113.175Z" fill="#F2F2F2"/>
<path d="M63.7179 113.175H58.7313V129.702H63.7179V113.175Z" fill="#F2F2F2"/>
<path d="M58.7313 111.817H63.7179V111.477C63.7197 109.397 63.2756 107.342 62.4155 105.448C61.5553 103.554 60.2991 101.866 58.7313 100.498V111.817Z" fill="#F2F2F2"/>
<path d="M57.3714 131.06H40.825V146.002H57.3714V131.06Z" fill="#F2F2F2"/>
<path d="M39.465 131.06H34.4784V142.379C34.4784 143.34 34.8605 144.261 35.5406 144.941C36.2207 145.62 37.1432 146.002 38.105 146.002H39.465L39.465 131.06Z" fill="#F2F2F2"/>
<path d="M58.7313 131.06V146.002H60.0913C60.5676 146.002 61.0391 145.908 61.4792 145.726C61.9192 145.544 62.319 145.277 62.6557 144.941C62.9925 144.604 63.2596 144.205 63.4419 143.766C63.6241 143.326 63.7179 142.855 63.7179 142.379V131.06H58.7313Z" fill="#F2F2F2"/>
<path d="M39.465 111.817V100.498C37.8972 101.866 36.641 103.554 35.7809 105.448C34.9207 107.342 34.4766 109.397 34.4784 111.477V111.817H39.465Z" fill="#F2F2F2"/>
<path d="M40.825 111.817H57.3714V99.439C54.9383 97.7651 52.0526 96.8707 49.0981 96.8748C46.1437 96.8707 43.2581 97.7651 40.825 99.439V111.817Z" fill="#F2F2F2"/>
<path d="M70.2305 147.807H28.0711C27.8007 147.807 27.5414 147.7 27.3502 147.509C27.159 147.318 27.0514 147.059 27.0511 146.789V144.072C27.0514 143.802 27.159 143.543 27.3502 143.352C27.5414 143.161 27.8007 143.054 28.0711 143.053H70.2305C70.5009 143.054 70.7602 143.161 70.9514 143.352C71.1426 143.543 71.2502 143.802 71.2505 144.072V146.789C71.2502 147.059 71.1426 147.318 70.9514 147.509C70.7602 147.7 70.5009 147.807 70.2305 147.807Z" fill="#E6E6E6"/>
<path d="M196.277 113.175H191.29V129.702H196.277V113.175Z" fill="#F2F2F2"/>
<path d="M214.183 113.175H197.637V129.702H214.183V113.175Z" fill="#F2F2F2"/>
<path d="M220.53 113.175H215.543V129.702H220.53V113.175Z" fill="#F2F2F2"/>
<path d="M215.543 111.817H220.53V111.477C220.532 109.397 220.088 107.342 219.228 105.448C218.367 103.554 217.111 101.866 215.543 100.498V111.817Z" fill="#F2F2F2"/>
<path d="M214.183 131.06H197.637V146.002H214.183V131.06Z" fill="#F2F2F2"/>
<path d="M196.277 131.06H191.29V142.379C191.29 143.34 191.673 144.261 192.353 144.941C193.033 145.62 193.955 146.002 194.917 146.002H196.277L196.277 131.06Z" fill="#F2F2F2"/>
<path d="M215.543 131.06V146.002H216.903C217.38 146.002 217.851 145.908 218.291 145.726C218.731 145.544 219.131 145.277 219.468 144.941C219.804 144.604 220.072 144.205 220.254 143.766C220.436 143.326 220.53 142.855 220.53 142.379V131.06H215.543Z" fill="#F2F2F2"/>
<path d="M196.277 111.817V100.498C194.709 101.866 193.453 103.554 192.593 105.448C191.733 107.342 191.289 109.397 191.29 111.477V111.817H196.277Z" fill="#F2F2F2"/>
<path d="M197.637 111.817H214.183V99.439C211.75 97.7651 208.865 96.8707 205.91 96.8748C202.956 96.8707 200.07 97.7651 197.637 99.439V111.817Z" fill="#F2F2F2"/>
<path d="M227.043 147.807H184.883C184.613 147.807 184.353 147.7 184.162 147.509C183.971 147.318 183.863 147.059 183.863 146.789V144.072C183.863 143.802 183.971 143.543 184.162 143.352C184.353 143.161 184.613 143.054 184.883 143.053H227.043C227.313 143.054 227.572 143.161 227.763 143.352C227.955 143.543 228.062 143.802 228.063 144.072V146.789C228.062 147.059 227.955 147.318 227.763 147.509C227.572 147.7 227.313 147.807 227.043 147.807Z" fill="#E6E6E6"/>
<path d="M239.55 202.733H15.4502C12.9235 202.73 10.5012 201.726 8.71459 199.942C6.92799 198.157 5.92302 195.738 5.92017 193.214V48.1282C5.92302 45.6046 6.92799 43.1852 8.71459 41.4008C10.5012 39.6163 12.9235 38.6125 15.4502 38.6097H239.55C242.076 38.6125 244.499 39.6163 246.285 41.4008C248.072 43.1852 249.077 45.6046 249.08 48.1282V193.214C249.077 195.738 248.072 198.157 246.285 199.942C244.499 201.726 242.076 202.73 239.55 202.733ZM15.4502 39.1866C13.0767 39.1893 10.8011 40.1322 9.12282 41.8085C7.4445 43.4848 6.50043 45.7576 6.49774 48.1282V193.214C6.50043 195.585 7.4445 197.858 9.12282 199.534C10.8011 201.21 13.0767 202.153 15.4502 202.156H239.55C241.923 202.153 244.199 201.21 245.877 199.534C247.556 197.858 248.5 195.585 248.502 193.214V48.1282C248.5 45.7576 247.556 43.4848 245.877 41.8085C244.199 40.1322 241.923 39.1893 239.55 39.1866H15.4502Z" fill="#CCCCCC"/>
<path d="M9.54397 57.5803C7.14491 57.5784 4.8344 56.6749 3.0718 55.0494C1.30921 53.4238 0.223626 51.1953 0.0308907 48.8069C-0.161845 46.4184 0.552381 44.045 2.03157 42.1585C3.51076 40.272 5.64657 39.0106 8.01437 38.625L125.134 0.189892C126.656 -0.0613926 128.208 -0.0632956 129.731 0.184258L247.006 38.6313C249.503 39.0428 251.735 40.4277 253.21 42.4816C254.686 44.5356 255.284 47.0906 254.875 49.5852C254.465 52.0798 253.081 54.3101 251.026 55.7858C248.971 57.2616 246.414 57.8622 243.916 57.4556C242.652 57.2754 128.538 41.0011 127.498 40.9583C126.461 41.0011 12.236 57.2913 11.0823 57.4559C10.5737 57.5387 10.0593 57.5803 9.54397 57.5803Z" fill="#CCCCCC"/>
<path d="M177.73 179.816C177.972 179.503 178.142 179.14 178.228 178.755C178.314 178.369 178.315 177.969 178.229 177.582C178.144 177.196 177.975 176.834 177.734 176.52C177.493 176.206 177.186 175.949 176.835 175.766L177.371 169.609L173.703 168.371L173.07 177.077C172.802 177.687 172.767 178.374 172.972 179.007C173.177 179.64 173.608 180.177 174.182 180.514C174.757 180.852 175.435 180.967 176.089 180.839C176.743 180.71 177.327 180.346 177.73 179.816Z" fill="#FFB8B8"/>
<path d="M196.031 227.69L192.729 227.69L191.159 214.97L196.032 214.971L196.031 227.69Z" fill="#FFB8B8"/>
<path d="M190.371 226.747H196.738V230.751H186.362C186.362 230.226 186.465 229.705 186.667 229.219C186.868 228.733 187.164 228.292 187.536 227.92C187.908 227.548 188.35 227.253 188.836 227.052C189.323 226.851 189.844 226.747 190.371 226.747Z" fill="#2F2E41"/>
<path d="M188.536 219.25L185.33 220.037L180.766 208.06L185.498 206.899L188.536 219.25Z" fill="#FFB8B8"/>
<path d="M182.815 219.684L188.998 218.167L189.955 222.055L179.878 224.528C179.753 224.017 179.729 223.487 179.809 222.967C179.888 222.448 180.07 221.949 180.342 221.499C180.615 221.049 180.974 220.657 181.398 220.346C181.822 220.034 182.304 219.81 182.815 219.684Z" fill="#2F2E41"/>
<path d="M192.166 223.635C191.865 223.635 191.574 223.524 191.35 223.323C191.126 223.122 190.985 222.844 190.955 222.545L187.155 187.195L183.85 198.005L188.532 214.888C188.612 215.178 188.583 215.487 188.449 215.756C188.316 216.025 188.088 216.235 187.808 216.347L184.086 217.834C183.933 217.895 183.769 217.925 183.603 217.921C183.438 217.917 183.276 217.88 183.126 217.811C182.976 217.743 182.841 217.645 182.73 217.523C182.618 217.401 182.533 217.258 182.479 217.103L176.74 200.659C176.112 198.863 175.834 196.964 175.921 195.065L176.722 177.319L197.816 178.211L197.487 222.116C197.483 222.421 197.365 222.714 197.156 222.938C196.947 223.161 196.662 223.299 196.357 223.323L192.261 223.631C192.229 223.634 192.198 223.635 192.166 223.635Z" fill="#2F2E41"/>
<path d="M188.673 138.046C192.59 138.046 195.766 134.874 195.766 130.961C195.766 127.049 192.59 123.877 188.673 123.877C184.756 123.877 181.58 127.049 181.58 130.961C181.58 134.874 184.756 138.046 188.673 138.046Z" fill="#FFB8B8"/>
<path d="M193.889 179.365C192.021 179.365 189.7 179.213 187.3 179.055C184.019 178.839 180.627 178.616 178.094 178.763C177.753 178.797 177.408 178.742 177.093 178.605C176.778 178.468 176.503 178.253 176.295 177.98C173.684 174.642 177.711 161.623 177.883 161.071L181.16 146.513L181.301 146.545L181.16 146.513C181.881 143.312 184.184 140.95 187.171 140.35C189.966 139.789 192.67 140.907 194.404 143.343C194.496 143.472 194.588 143.604 194.68 143.74C200.327 152.093 197.133 172.843 196.919 174.182C197.217 174.539 198.83 176.557 198.387 177.958C198.206 178.528 197.716 178.917 196.931 179.113C195.929 179.311 194.909 179.396 193.889 179.365Z" fill="#CCCCCC"/>
<path d="M178.209 179.372C177.567 179.372 176.7 179.135 175.531 178.649C175.029 178.441 173.501 177.805 175.356 161.61C176.267 153.655 177.573 145.756 177.586 145.677L177.599 145.601L177.669 145.569C177.703 145.554 181.037 144.027 181.617 142.065C181.637 141.997 181.659 141.932 181.684 141.868C181.844 141.432 182.166 141.074 182.583 140.869C183 140.665 183.48 140.629 183.923 140.769C184.391 140.881 184.799 141.166 185.064 141.568C185.33 141.969 185.432 142.456 185.351 142.929C185.149 144.209 184.761 145.452 184.198 146.619C182.629 149.852 181.566 158.424 181.556 158.51C181.496 159.242 180.072 176.588 179.798 177.904C179.702 178.364 179.525 178.926 179.008 179.199C178.76 179.321 178.485 179.381 178.209 179.372Z" fill="#2F2E41"/>
<path d="M185.958 178.707C185.828 178.707 185.702 178.664 185.6 178.584C183.513 177 186.89 157.802 188.893 151.178C189.294 149.851 189.652 148.715 189.955 147.801C190.508 146.161 190.894 144.469 191.107 142.752C191.217 141.821 191.457 141.29 191.84 141.127C192.106 141.014 192.419 141.091 192.77 141.356C194.619 141.265 196.417 142.02 198.084 142.85L199.583 143.598L201.266 173.35C201.218 175.249 197.471 176.589 195.835 176.675C193.211 176.812 188.498 177.239 186.421 178.552C186.284 178.647 186.124 178.701 185.958 178.707Z" fill="#2F2E41"/>
<path d="M176.584 173.125C176.559 173.125 176.535 173.124 176.51 173.122L173.111 172.914C172.942 172.903 172.777 172.858 172.626 172.78C172.476 172.703 172.343 172.594 172.236 172.463C172.13 172.331 172.052 172.179 172.007 172.015C171.963 171.852 171.953 171.681 171.978 171.514L173.516 161.338L176.411 147.061C176.482 146.709 176.627 146.376 176.835 146.084C177.044 145.792 177.311 145.546 177.621 145.364C177.93 145.181 178.274 145.066 178.631 145.025C178.988 144.984 179.35 145.018 179.692 145.125C180.278 145.312 180.778 145.702 181.102 146.225C181.425 146.747 181.551 147.368 181.456 147.975L179.156 162.281L177.795 172.072C177.753 172.364 177.608 172.63 177.385 172.823C177.163 173.017 176.879 173.124 176.584 173.125Z" fill="#2F2E41"/>
<path d="M189.969 137.872C191.036 137.895 192.096 137.692 193.08 137.276C194.063 136.861 194.948 136.242 195.675 135.461C196.402 134.68 196.955 133.754 197.298 132.744C197.641 131.735 197.767 130.664 197.666 129.602C197.565 128.54 197.241 127.512 196.714 126.584C196.187 125.657 195.469 124.851 194.608 124.22C193.747 123.589 192.762 123.148 191.718 122.924C190.674 122.701 189.595 122.7 188.551 122.923C186.991 121.977 185.177 121.341 183.36 121.503C181.542 121.664 179.745 122.742 179.065 124.434C178.385 126.125 179.115 128.355 180.805 129.042C181.889 129.483 183.112 129.269 184.269 129.091C185.425 128.914 186.686 128.798 187.693 129.394C188.699 129.99 189.151 131.587 188.25 132.332C187.772 132.743 187.431 133.289 187.272 133.898C187.113 134.507 187.143 135.151 187.359 135.742C187.812 136.912 189.049 137.852 189.969 137.872Z" fill="#2F2E41"/>
<path d="M174.246 138.503C172.398 138.505 170.625 139.239 169.318 140.545C168.012 141.851 167.278 143.622 167.278 145.468C167.278 147.314 168.012 149.085 169.318 150.391C170.625 151.697 172.397 152.431 174.246 152.433H174.246C176.095 152.432 177.867 151.697 179.174 150.391C180.481 149.085 181.215 147.314 181.215 145.468C181.215 143.622 180.481 141.851 179.174 140.545C177.867 139.239 176.095 138.505 174.246 138.503Z" fill="#00917C"/>
<path d="M173.585 148.361C173.401 148.361 173.222 148.302 173.075 148.192L173.066 148.185L171.149 146.72C171.06 146.652 170.985 146.567 170.929 146.47C170.873 146.373 170.837 146.266 170.822 146.156C170.808 146.045 170.815 145.932 170.844 145.824C170.873 145.716 170.923 145.615 170.991 145.526C171.059 145.438 171.144 145.363 171.241 145.307C171.338 145.251 171.445 145.215 171.556 145.2C171.667 145.186 171.779 145.193 171.887 145.222C171.996 145.251 172.097 145.301 172.186 145.369L173.428 146.32L176.363 142.495C176.431 142.407 176.516 142.332 176.613 142.277C176.709 142.221 176.816 142.184 176.927 142.17C177.038 142.155 177.151 142.162 177.259 142.191C177.367 142.22 177.468 142.27 177.557 142.338L177.557 142.338L177.539 142.363L177.558 142.338C177.737 142.476 177.854 142.678 177.884 142.902C177.913 143.126 177.853 143.352 177.715 143.531L174.263 148.028C174.183 148.131 174.081 148.215 173.963 148.273C173.845 148.33 173.716 148.36 173.585 148.36L173.585 148.361Z" fill="white"/>
<path d="M188.935 157.816H164.462C164.136 157.816 163.814 157.88 163.513 158.004C163.212 158.129 162.939 158.311 162.709 158.541C162.479 158.771 162.296 159.044 162.172 159.344C162.047 159.644 161.983 159.966 161.983 160.291V184.735C161.983 185.06 162.047 185.382 162.172 185.683C162.296 185.983 162.479 186.256 162.709 186.486C162.939 186.716 163.212 186.898 163.513 187.022C163.814 187.147 164.136 187.211 164.462 187.21H188.935C189.26 187.211 189.583 187.147 189.883 187.022C190.184 186.898 190.457 186.716 190.688 186.486C190.918 186.256 191.1 185.983 191.225 185.683C191.349 185.382 191.413 185.06 191.413 184.735V160.291C191.413 159.966 191.349 159.644 191.225 159.344C191.1 159.044 190.918 158.771 190.688 158.541C190.457 158.311 190.184 158.129 189.883 158.004C189.583 157.88 189.26 157.816 188.935 157.816Z" fill="#00917C"/>
<path d="M183.423 176.094L171.868 178.342C171.183 178.474 170.473 178.33 169.894 177.94C169.315 177.55 168.914 176.947 168.78 176.263L167.892 171.707C167.759 171.023 167.904 170.313 168.294 169.735C168.684 169.157 169.288 168.757 169.973 168.623L181.528 166.375C182.214 166.243 182.924 166.387 183.503 166.777C184.082 167.167 184.482 167.77 184.616 168.454L185.504 173.01C185.637 173.694 185.492 174.404 185.102 174.982C184.712 175.56 184.108 175.96 183.423 176.094Z" fill="white"/>
<path d="M181.111 170.712L172.293 172.427C172.132 172.459 171.965 172.425 171.829 172.333C171.692 172.241 171.598 172.099 171.567 171.938C171.535 171.777 171.569 171.61 171.661 171.474C171.753 171.338 171.895 171.244 172.056 171.212L180.875 169.497C180.955 169.482 181.037 169.482 181.117 169.498C181.196 169.514 181.272 169.546 181.34 169.591C181.407 169.637 181.465 169.695 181.51 169.763C181.555 169.83 181.586 169.906 181.602 169.986C181.617 170.066 181.617 170.148 181.601 170.228C181.585 170.308 181.553 170.383 181.507 170.451C181.462 170.518 181.403 170.576 181.335 170.621C181.267 170.666 181.191 170.697 181.111 170.712Z" fill="#00917C"/>
<path d="M179.397 173.252L174.836 174.139C174.756 174.155 174.674 174.154 174.595 174.138C174.515 174.122 174.439 174.09 174.372 174.045C174.304 173.999 174.246 173.941 174.201 173.873C174.156 173.806 174.125 173.73 174.11 173.65C174.094 173.57 174.094 173.488 174.111 173.409C174.127 173.329 174.159 173.253 174.204 173.186C174.25 173.118 174.308 173.061 174.376 173.016C174.444 172.971 174.52 172.94 174.599 172.924L179.161 172.037C179.322 172.006 179.489 172.04 179.625 172.131C179.762 172.223 179.856 172.365 179.887 172.526C179.919 172.687 179.885 172.854 179.793 172.99C179.701 173.127 179.559 173.221 179.397 173.252H179.397Z" fill="#00917C"/>
<path d="M191.413 160.291V163.54H161.983V160.291C161.983 159.966 162.047 159.644 162.172 159.344C162.296 159.044 162.479 158.771 162.709 158.541C162.939 158.311 163.212 158.129 163.513 158.004C163.814 157.88 164.136 157.816 164.462 157.816H188.935C189.26 157.816 189.583 157.88 189.883 158.004C190.184 158.129 190.457 158.311 190.688 158.541C190.918 158.771 191.1 159.044 191.225 159.344C191.349 159.644 191.413 159.966 191.413 160.291Z" fill="#3F3D56"/>
<path d="M188.194 161.986C188.401 161.65 188.68 161.362 189.011 161.145C189.341 160.927 189.715 160.784 190.107 160.727C190.499 160.669 190.898 160.698 191.278 160.811C191.657 160.925 192.007 161.12 192.302 161.383L197.874 158.694L200.336 161.678L192.414 165.364C191.938 165.831 191.308 166.107 190.642 166.141C189.977 166.175 189.322 165.963 188.802 165.547C188.282 165.131 187.933 164.538 187.821 163.882C187.709 163.226 187.841 162.551 188.194 161.986Z" fill="#FFB8B8"/>
<path d="M195.935 164.874C195.66 164.874 195.394 164.781 195.178 164.612C194.963 164.442 194.811 164.205 194.746 163.939L193.937 160.578C193.875 160.326 193.896 160.06 193.997 159.82C194.098 159.58 194.273 159.379 194.497 159.246L199.378 156.328L196.883 147.204C196.707 146.555 196.746 145.867 196.993 145.242H196.993C197.228 144.649 197.641 144.144 198.174 143.794C198.708 143.444 199.336 143.267 199.974 143.286C200.612 143.306 201.229 143.521 201.74 143.903C202.251 144.285 202.632 144.815 202.83 145.421L205.585 153.822C205.923 154.846 205.926 155.951 205.593 156.977C205.259 158.002 204.607 158.895 203.731 159.525L196.65 164.642C196.442 164.792 196.192 164.873 195.935 164.874Z" fill="#2F2E41"/>
<path d="M204 231H174.544C174.467 231 174.394 230.97 174.34 230.915C174.286 230.861 174.255 230.788 174.255 230.712C174.255 230.635 174.286 230.562 174.34 230.508C174.394 230.453 174.467 230.423 174.544 230.423H204C204.077 230.423 204.15 230.453 204.205 230.508C204.259 230.562 204.289 230.635 204.289 230.712C204.289 230.788 204.259 230.861 204.205 230.915C204.15 230.97 204.077 231 204 231Z" fill="#CCCCCC"/>
</g>
<defs>
<clipPath id="clip0">
<rect width="255" height="231" fill="white"/>
</clipPath>
</defs>
</svg>
