<svg width="274" height="201" viewBox="0 0 274 201" fill="none" xmlns="http://www.w3.org/2000/svg">
<g clip-path="url(#clip0)">
<path d="M246.942 70.43H246.651C243.488 70.4264 240.456 69.1681 238.22 66.9311C235.983 64.6942 234.725 61.6612 234.722 58.4977V54.4232H199.226V53.8411H235.304V58.4977C235.307 61.4565 236.464 64.2973 238.529 66.4162C240.593 68.5351 243.403 69.7649 246.36 69.8442V53.8411H254.797C255.954 53.8398 257.064 53.3795 257.882 52.561C258.7 51.7426 259.16 50.633 259.162 49.4756V4.94756C259.16 3.79016 258.7 2.68054 257.882 1.86214C257.064 1.04373 255.954 0.583376 254.797 0.582066H143.654C142.497 0.583376 141.388 1.04373 140.569 1.86214C139.751 2.68054 139.291 3.79016 139.29 4.94756V37.2522H138.708V4.94756C138.709 3.63584 139.231 2.37827 140.158 1.45074C141.085 0.52321 142.343 0.00147666 143.654 0H254.797C256.109 0.00147666 257.366 0.52321 258.293 1.45074C259.22 2.37827 259.742 3.63584 259.743 4.94756V49.4756C259.742 50.7873 259.22 52.0449 258.293 52.9724C257.366 53.9 256.109 54.4217 254.797 54.4232H246.942V70.43Z" fill="#CCCCCC"/>
<path d="M236.462 14.7001C236.425 13.7611 236.026 12.8727 235.35 12.2211C234.673 11.5696 233.77 11.2053 232.83 11.2048H165.621C164.656 11.2048 163.731 11.5881 163.049 12.2703C162.367 12.9525 161.984 13.8779 161.984 14.8427C161.984 15.8075 162.367 16.7328 163.049 17.4151C163.731 18.0973 164.656 18.4806 165.621 18.4806H232.83C233.795 18.4793 234.719 18.0956 235.401 17.4136C236.082 16.7317 236.466 15.8071 236.467 14.8427C236.468 14.7951 236.466 14.7475 236.462 14.7001Z" fill="#CCCCCC"/>
<path d="M236.462 26.9235C236.425 25.9845 236.026 25.0961 235.35 24.4445C234.673 23.7929 233.77 23.4287 232.83 23.4282H165.621C164.656 23.4282 163.731 23.8114 163.049 24.4937C162.367 25.1759 161.984 26.1012 161.984 27.0661C161.984 28.0309 162.367 28.9562 163.049 29.6385C163.731 30.3207 164.656 30.704 165.621 30.704H232.83C233.795 30.7027 234.719 30.3189 235.401 29.637C236.082 28.955 236.466 28.0305 236.467 27.0661C236.468 27.0185 236.466 26.9708 236.462 26.9235Z" fill="#CCCCCC"/>
<path d="M236.462 39.1469C236.425 38.2079 236.026 37.3195 235.35 36.6679C234.673 36.0163 233.77 35.6521 232.83 35.6516H165.621C165.088 35.6516 164.561 35.7689 164.078 35.9952C163.596 36.2216 163.169 36.5513 162.828 36.9612C162.678 37.1426 162.546 37.3374 162.432 37.5433H194.57C195.727 37.5447 196.837 38.0051 197.655 38.8234C198.473 39.6418 198.933 40.7514 198.935 41.9088V42.9274H232.83C233.795 42.926 234.719 42.5423 235.401 41.8604C236.082 41.1784 236.466 40.2539 236.467 39.2895C236.468 39.2419 236.466 39.1942 236.462 39.1469Z" fill="#CCCCCC"/>
<path d="M7.13345 199.272C7.29173 199.402 7.45008 199.526 7.61212 199.649H47.59C47.8878 199.526 48.1842 199.401 48.4794 199.272C52.6999 197.434 56.6282 194.988 60.1389 192.011C62.47 190.035 64.6146 187.995 66.1693 186.084C68.3383 183.417 70.3359 180.51 71.265 177.198C72.1922 173.886 71.9152 170.089 69.8441 167.343C69.2028 166.498 68.4143 165.776 67.5167 165.211C67.3678 165.117 67.2171 165.026 67.0626 164.941C64.4859 163.554 61.4802 163.193 58.6482 163.929C54.6436 164.964 51.3157 167.854 48.9412 171.243C46.5667 174.631 45.0251 178.521 43.5063 182.369C41.9648 175.501 37.2968 169.351 30.9913 166.223C24.6876 163.096 16.8556 163.134 10.6858 166.521C8.74445 167.593 6.99084 168.975 5.4939 170.612C5.34511 170.772 5.19991 170.936 5.05673 171.102C2.04723 174.587 0.16457 179.051 0.0100722 183.654C-0.0593895 186.627 0.545488 189.576 1.77926 192.281C3.01303 194.986 4.84361 197.376 7.13345 199.272Z" fill="#F2F2F2"/>
<path d="M45.9919 199.649H46.5573C46.5647 199.522 46.5742 199.398 46.5855 199.272C46.7832 196.806 47.1968 194.362 47.8218 191.969C49.2556 186.505 51.7048 181.36 55.0413 176.802C58.3683 172.23 62.5625 168.357 67.3848 165.405C67.4201 165.385 67.4503 165.357 67.4732 165.323C67.496 165.29 67.5109 165.251 67.5167 165.211C67.5259 165.158 67.52 165.104 67.4996 165.055C67.4792 165.005 67.4452 164.963 67.4016 164.932C67.3579 164.901 67.3064 164.883 67.2531 164.881C67.1997 164.878 67.1467 164.891 67.1002 164.917C67.0872 164.924 67.0747 164.933 67.0626 164.941C64.3305 166.607 61.7943 168.575 59.5019 170.808C55.4014 174.809 52.0949 179.55 49.7572 184.781C47.6947 189.363 46.4314 194.264 46.022 199.272C46.0107 199.398 46.0013 199.524 45.9919 199.649Z" fill="white"/>
<path d="M5.05667 171.102C5.06076 171.104 5.06524 171.105 5.06983 171.106C5.48253 171.181 5.89715 171.26 6.30801 171.345C9.68036 172.038 12.9816 173.04 16.1696 174.34C19.3493 175.638 22.4078 177.215 25.3095 179.053C28.2148 180.889 30.9546 182.976 33.4976 185.289C36.0406 187.598 38.3734 190.129 40.4684 192.851C42.0342 194.891 43.4578 197.036 44.7292 199.272C44.8008 199.396 44.8706 199.522 44.9403 199.649H45.5867C45.5189 199.522 45.4491 199.396 45.3775 199.272C43.8393 196.533 42.0756 193.927 40.1047 191.481C37.9251 188.774 35.509 186.266 32.8851 183.988C30.2779 181.722 27.4797 179.686 24.5217 177.903C21.5515 176.112 18.4286 174.588 15.1897 173.349C12.0465 172.147 8.80144 171.231 5.49384 170.612C5.40155 170.595 5.3111 170.578 5.21871 170.561C4.86638 170.497 4.71556 171.028 5.05667 171.102Z" fill="white"/>
<path d="M16.2985 190.779C20.2353 190.238 24.2333 190.328 28.1417 191.047C32.0387 191.759 35.8009 193.075 39.2929 194.946C41.2553 196.001 43.1178 197.232 44.8576 198.624C45.1418 198.851 44.7395 199.249 44.4578 199.024C41.4051 196.595 37.983 194.671 34.3216 193.324C30.6893 191.981 26.8713 191.206 23.0025 191.027C20.8135 190.927 18.6198 191.026 16.4488 191.325C16.3766 191.342 16.3006 191.331 16.236 191.295C16.1715 191.258 16.1232 191.198 16.1011 191.127C16.0816 191.055 16.0914 190.978 16.1284 190.913C16.1654 190.848 16.2265 190.8 16.2985 190.779H16.2985Z" fill="white"/>
<path d="M194.279 37.5433H83.1361C81.8249 37.5451 80.5679 38.067 79.6407 38.9944C78.7135 39.9219 78.1918 41.1792 78.1899 42.4908V87.0189C78.1918 88.3305 78.7135 89.5879 79.6407 90.5153C80.5679 91.4427 81.8249 91.9646 83.1361 91.9665H90.9918V107.973H91.2827C94.4455 107.97 97.4777 106.712 99.7141 104.475C101.951 102.238 103.208 99.2046 103.212 96.0409V91.9665H194.279C195.591 91.9646 196.848 91.4427 197.775 90.5153C198.702 89.5879 199.224 88.3305 199.226 87.0189V42.4908C199.224 41.1792 198.702 39.9219 197.775 38.9944C196.848 38.067 195.591 37.5451 194.279 37.5433ZM198.644 87.0189C198.642 88.1763 198.182 89.2858 197.364 90.1042C196.546 90.9226 195.436 91.383 194.279 91.3844H102.63V96.0409C102.626 98.9997 101.469 101.84 99.4041 103.959C97.3396 106.078 94.5305 107.308 91.5737 107.388V91.3844H83.1361C81.9791 91.383 80.8698 90.9226 80.0517 90.1042C79.2335 89.2858 78.7733 88.1763 78.7718 87.0189V42.4908C78.7733 41.3335 79.2335 40.2239 80.0517 39.4055C80.8698 38.5871 81.9791 38.1267 83.1361 38.1253H194.279C195.436 38.1267 196.546 38.5871 197.364 39.4055C198.182 40.2239 198.642 41.3335 198.644 42.4908V87.0189Z" fill="#3F3D56"/>
<path d="M172.313 48.748H105.103C104.164 48.7486 103.261 49.1128 102.584 49.7644C101.907 50.416 101.508 51.3044 101.472 52.2434C101.467 52.2907 101.465 52.3384 101.466 52.386C101.467 53.3504 101.851 54.2749 102.533 54.9569C103.215 55.6388 104.139 56.0225 105.103 56.0239H172.313C173.277 56.0239 174.202 55.6406 174.884 54.9584C175.566 54.2761 175.95 53.3508 175.95 52.386C175.95 51.4211 175.566 50.4958 174.884 49.8136C174.202 49.1313 173.277 48.748 172.313 48.748Z" fill="#00917C"/>
<path d="M172.313 60.9714H105.103C104.164 60.972 103.261 61.3362 102.584 61.9878C101.907 62.6394 101.508 63.5278 101.472 64.4667C101.467 64.5141 101.465 64.5617 101.466 64.6093C101.467 65.5738 101.851 66.4983 102.533 67.1802C103.215 67.8622 104.139 68.2459 105.103 68.2473H172.313C173.277 68.2473 174.202 67.864 174.884 67.1817C175.566 66.4995 175.95 65.5742 175.95 64.6093C175.95 63.6445 175.566 62.7192 174.884 62.037C174.202 61.3547 173.277 60.9714 172.313 60.9714Z" fill="#00917C"/>
<path d="M172.313 73.1948H105.103C104.164 73.1954 103.261 73.5596 102.584 74.2112C101.907 74.8628 101.508 75.7512 101.472 76.6901C101.467 76.7375 101.465 76.7851 101.466 76.8327C101.467 77.7972 101.851 78.7217 102.533 79.4036C103.215 80.0856 104.139 80.4693 105.103 80.4706H172.313C173.277 80.4706 174.202 80.0874 174.884 79.4051C175.566 78.7229 175.95 77.7976 175.95 76.8327C175.95 75.8679 175.566 74.9426 174.884 74.2603C174.202 73.5781 173.277 73.1948 172.313 73.1948Z" fill="#00917C"/>
<path d="M65.3842 137.577C65.2532 137.577 65.1224 137.569 64.9924 137.553C64.5447 137.498 64.1137 137.349 63.7276 137.116C63.3414 136.882 63.0089 136.57 62.7518 136.2C62.4947 135.829 62.3188 135.408 62.2356 134.965C62.1524 134.521 62.1638 134.065 62.2691 133.627C62.2941 133.525 62.3242 133.424 62.3595 133.325L52.652 120.894C52.2246 120.343 51.9864 119.668 51.9728 118.97C51.9591 118.272 52.1708 117.589 52.5762 117.021L55.9766 112.297L60.421 115.727L58.6355 118.795L65.7064 131.193C65.8486 131.206 65.9897 131.229 66.1286 131.261C66.8905 131.444 67.5587 131.901 68.0068 132.544C68.4548 133.187 68.6516 133.972 68.5599 134.75C68.4682 135.528 68.0942 136.246 67.509 136.767C66.9237 137.288 66.1677 137.576 65.3842 137.577L65.3842 137.577Z" fill="#A0616A"/>
<path d="M82.1841 196.482L85.7512 196.481L87.448 182.719L82.1835 182.719L82.1841 196.482Z" fill="#A0616A"/>
<path d="M92.6304 199.794L81.4198 199.795L81.4196 195.462L88.2988 195.462C88.8676 195.462 89.4309 195.574 89.9564 195.792C90.4819 196.009 90.9594 196.328 91.3616 196.731C91.7638 197.133 92.0829 197.611 92.3006 198.136C92.5183 198.662 92.6303 199.225 92.6304 199.794Z" fill="#2F2E41"/>
<path d="M52.798 196.482L56.3651 196.481L58.0619 182.719L52.7974 182.719L52.798 196.482Z" fill="#A0616A"/>
<path d="M63.2443 199.794L52.0337 199.795L52.0335 195.462L58.9127 195.462C59.4815 195.462 60.0448 195.574 60.5703 195.792C61.0958 196.009 61.5733 196.328 61.9755 196.731C62.3777 197.133 62.6968 197.611 62.9145 198.136C63.1322 198.662 63.2442 199.225 63.2443 199.794Z" fill="#2F2E41"/>
<path d="M54.9873 112.967L62.9956 116.011L64.9508 110.579C65.2105 109.857 65.2068 109.067 64.9405 108.348C64.6742 107.629 64.1623 107.028 63.4955 106.65C62.8209 106.267 62.0319 106.139 61.2709 106.288C60.5099 106.436 59.8271 106.852 59.3458 107.46L54.9873 112.967Z" fill="#00917C"/>
<path d="M81.55 185.372C81.2302 185.372 80.9196 185.265 80.6672 185.069C80.4147 184.872 80.2348 184.598 80.1556 184.288C76.1621 169.005 72.1073 161.345 67.7592 152.488C67.6505 152.267 67.4742 152.086 67.2559 151.973C67.0376 151.859 66.7887 151.818 66.5455 151.855C66.3023 151.893 66.0773 152.007 65.9034 152.181C65.7296 152.356 65.6158 152.581 65.5786 152.824L60.1891 183.979C60.1352 184.326 59.957 184.642 59.6875 184.868C59.4179 185.094 59.0756 185.214 58.7241 185.206L50.7225 185.011C50.5283 185.007 50.337 184.964 50.1601 184.884C49.9832 184.804 49.8244 184.689 49.6932 184.546C49.5547 184.408 49.4487 184.242 49.3831 184.058C49.3174 183.874 49.2938 183.678 49.3139 183.484C52.938 159.577 55.7914 137.937 61.2787 131.335C61.4308 131.191 61.6052 131.073 61.7951 130.984L61.6286 130.959C61.581 130.951 61.4543 130.932 61.4527 130.804L61.4512 130.681L61.5763 130.657C61.7761 130.65 61.9756 130.68 62.1645 130.746L74.6883 132.674C75.0352 132.727 75.3509 132.905 75.5764 133.174C75.802 133.443 75.9221 133.785 75.9143 134.136C76.5952 137.322 77.6386 142.131 77.7319 142.368C84.4138 155.075 87.0067 165.081 89.7017 182.168C89.7575 182.53 89.6741 182.9 89.4684 183.203C89.2627 183.507 88.9498 183.721 88.5926 183.803L81.8761 185.335C81.7691 185.36 81.6597 185.372 81.55 185.372Z" fill="#2F2E41"/>
<path d="M74.5218 134.757C74.4094 134.757 74.2974 134.744 74.1881 134.718L61.858 131.784C61.6691 131.74 61.4911 131.658 61.3352 131.542C61.1793 131.427 61.0487 131.28 60.9515 131.112C60.8513 130.938 60.7871 130.746 60.7629 130.547C60.7387 130.348 60.755 130.146 60.8107 129.953C62.1403 125.342 60.3969 119.626 58.3148 114.136C58.0499 112.531 58.3094 110.883 59.0546 109.437C59.7998 107.991 60.9911 106.823 62.4519 106.107L62.4854 106.091L68.9589 106.418C70.0219 106.697 71.0078 107.213 71.8427 107.928C72.6776 108.642 73.3396 109.537 73.7791 110.545C76.2742 116.386 76.9886 123.881 75.9629 133.459C75.9252 133.815 75.7572 134.145 75.4911 134.385C75.2251 134.624 74.8798 134.757 74.5218 134.757L74.5218 134.757Z" fill="#00917C"/>
<path d="M76.1805 121.424C75.5224 121.425 74.8802 121.221 74.3436 120.84L69.5679 117.435L72.9752 112.973L76.0511 114.744L88.4111 107.612C88.4235 107.47 88.4458 107.328 88.4778 107.189C88.6226 106.573 88.947 106.013 89.4097 105.581C89.8725 105.149 90.453 104.864 91.0777 104.762C91.7024 104.66 92.3434 104.746 92.9194 105.008C93.4955 105.271 93.9809 105.698 94.3142 106.236C94.6475 106.775 94.8137 107.4 94.7918 108.032C94.77 108.665 94.561 109.277 94.1914 109.791C93.8218 110.305 93.3081 110.698 92.7152 110.92C92.1224 111.142 91.4771 111.183 90.8609 111.038C90.759 111.014 90.6584 110.984 90.5595 110.949L78.1433 120.747C77.5837 121.187 76.8922 121.425 76.1805 121.424Z" fill="#A0616A"/>
<path d="M68.0529 118.825L75.1372 114.006L71.8079 109.289C71.3658 108.663 70.7166 108.213 69.975 108.019C69.2334 107.825 68.4472 107.9 67.7553 108.23C67.0554 108.563 66.4978 109.136 66.1833 109.845C65.8688 110.554 65.8181 111.352 66.0403 112.095L68.0529 118.825Z" fill="#00917C"/>
<path d="M64.6458 103.673C68.5925 103.673 71.7919 100.472 71.7919 96.5245C71.7919 92.5767 68.5925 89.3764 64.6458 89.3764C60.6992 89.3764 57.4998 92.5767 57.4998 96.5245C57.4998 100.472 60.6992 103.673 64.6458 103.673Z" fill="#A0616A"/>
<path d="M65.3006 103.838C64.2281 103.833 63.4006 102.704 63.4487 101.632C63.4968 100.56 64.2164 99.617 65.0835 98.9855C65.9505 98.3539 66.9673 97.9692 67.9342 97.5049C68.9011 97.0406 69.8596 96.4614 70.4565 95.57C70.8172 94.9866 71.0325 94.3252 71.0843 93.6412C71.1361 92.9573 71.0229 92.2709 70.7543 91.6398C70.1987 90.3776 69.2449 89.3324 68.0388 88.6642C66.2472 87.6152 64.1263 87.2798 62.0985 87.7248C60.0708 88.1697 58.285 89.3625 57.097 91.0654L55.8726 94.4C54.6251 95.9006 54.4272 98.1291 55.1941 99.9237C55.961 101.718 57.5939 103.069 59.4365 103.71C61.3059 104.311 63.3071 104.371 65.2092 103.884" fill="#2F2E41"/>
<path d="M57.5792 93.1354C57.0896 92.3803 56.4219 91.7573 55.6348 91.3213C54.8477 90.8853 53.9655 90.6497 53.0659 90.6352C52.1663 90.6208 51.277 90.8279 50.4763 91.2385C49.6756 91.649 48.9882 92.2502 48.4747 92.9892C47.6151 94.2262 47.3029 95.7511 46.7118 97.1367C45.6413 99.6181 43.6943 101.618 41.2429 102.754C43.3893 103.132 45.5277 102.04 47.2437 100.696C48.9598 99.352 50.4689 97.7118 52.3908 96.6838C53.9027 95.878 55.6012 95.4878 57.313 95.5529" fill="#2F2E41"/>
<path d="M117.728 200.231H6.87597C6.79881 200.231 6.7248 200.2 6.67024 200.146C6.61568 200.091 6.58502 200.017 6.58502 199.94C6.58502 199.863 6.61568 199.789 6.67024 199.734C6.7248 199.679 6.79881 199.649 6.87597 199.649H117.728C117.805 199.649 117.879 199.679 117.934 199.734C117.989 199.789 118.019 199.863 118.019 199.94C118.019 200.017 117.989 200.091 117.934 200.146C117.879 200.2 117.805 200.231 117.728 200.231Z" fill="#3F3D56"/>
<path d="M256.834 106.518C266.314 106.518 274 98.8304 274 89.3472C274 79.8639 266.314 72.1762 256.834 72.1762C247.353 72.1762 239.668 79.8639 239.668 89.3472C239.668 98.8304 247.353 106.518 256.834 106.518Z" fill="#E6E6E6"/>
<path d="M258.471 101.586C257.772 101.566 256.902 101.542 256.232 101.052C256.032 100.9 255.868 100.707 255.751 100.485C255.635 100.263 255.568 100.018 255.555 99.7678C255.543 99.5898 255.572 99.4114 255.641 99.2466C255.709 99.0818 255.814 98.9349 255.949 98.8176C256.148 98.6685 256.382 98.5717 256.629 98.5362C256.875 98.5007 257.127 98.5275 257.361 98.6142L256.79 94.4419L257.209 94.3845L257.88 99.2896L257.53 99.129C257.124 98.9429 256.568 98.8483 256.222 99.1406C256.137 99.2171 256.07 99.3121 256.028 99.4183C255.986 99.5244 255.969 99.639 255.978 99.7529C255.988 99.9393 256.038 100.121 256.125 100.287C256.212 100.452 256.334 100.597 256.481 100.711C257.003 101.092 257.696 101.141 258.483 101.163L258.471 101.586Z" fill="#3F3D56"/>
<path d="M254.718 94.8018H252.44V95.2248H254.718V94.8018Z" fill="#3F3D56"/>
<path d="M261.907 94.8018H259.63V95.2248H261.907V94.8018Z" fill="#3F3D56"/>
<path d="M248.483 88.9603C246.649 88.7511 245.228 86.9932 245.072 85.2096C244.887 83.0877 246.122 81.0724 247.817 79.8817C249.589 78.6365 251.798 78.1165 253.934 78.002C258.102 77.7945 262.198 79.145 265.426 81.7909C267.027 83.121 268.522 84.8153 269.089 86.8618C269.581 88.6391 269.181 90.6525 267.752 91.8973C267.398 92.2023 266.985 92.4307 266.539 92.5682C266.093 92.7056 265.623 92.749 265.159 92.6957C264.051 92.5805 263.027 91.9973 262.142 91.3532C260.419 90.1004 259.005 88.355 256.906 87.7003C255.367 87.2202 253.37 87.6428 252.43 89.0348C252.217 89.3535 252.078 89.7164 252.025 90.0963C252.006 90.1773 252.018 90.2627 252.059 90.3352C252.1 90.4076 252.167 90.4618 252.247 90.4866C252.328 90.5084 252.415 90.4974 252.488 90.4559C252.561 90.4145 252.614 90.3459 252.637 90.265C252.884 88.5117 255.039 87.8575 256.552 88.2579C258.757 88.8417 260.237 90.81 262.046 92.0605C262.983 92.759 264.086 93.1995 265.246 93.3381C266.252 93.417 267.25 93.1103 268.038 92.4801C269.584 91.2593 270.175 89.1596 269.833 87.2691C269.437 85.0798 267.964 83.2035 266.348 81.7509C263.071 78.8371 258.817 77.2652 254.434 77.3484C252.198 77.3998 249.865 77.8615 247.939 79.0435C246.071 80.1901 244.627 82.1083 244.438 84.338C244.272 86.3006 245.324 88.3534 247.131 89.2132C247.557 89.4151 248.014 89.5441 248.483 89.5949C248.888 89.6411 248.885 89.0062 248.483 88.9603L248.483 88.9603Z" fill="#3F3D56"/>
</g>
<defs>
<clipPath id="clip0">
<rect width="274" height="200.231" fill="white"/>
</clipPath>
</defs>
</svg>
