<svg width="34" height="34" viewBox="0 0 34 34" fill="none" xmlns="http://www.w3.org/2000/svg">
<path d="M9.44552 11.687H13.2235V15.9369C13.2235 16.2187 13.323 16.4889 13.5001 16.6881C13.6772 16.8874 13.9175 16.9993 14.168 16.9993H17.9459C18.1964 16.9993 18.4367 16.8874 18.6138 16.6881C18.7909 16.4889 18.8904 16.2187 18.8904 15.9369V11.687H22.6684C22.9189 11.687 23.1591 11.5751 23.3363 11.3759C23.5134 11.1766 23.6129 10.9064 23.6129 10.6246V6.37475C23.6129 6.09297 23.5134 5.82273 23.3363 5.62348C23.1591 5.42423 22.9189 5.31229 22.6684 5.31229H18.8904V1.06246C18.8904 0.780677 18.7909 0.510436 18.6138 0.311187C18.4367 0.111937 18.1964 0 17.9459 0H14.168C13.9175 0 13.6772 0.111937 13.5001 0.311187C13.323 0.510436 13.2235 0.780677 13.2235 1.06246V5.31229H9.44552C9.19502 5.31229 8.95478 5.42423 8.77766 5.62348C8.60053 5.82273 8.50102 6.09297 8.50102 6.37475V10.6246C8.50102 10.9064 8.60053 11.1766 8.77766 11.3759C8.95478 11.5751 9.19502 11.687 9.44552 11.687ZM33.5413 22.3322C33.3578 22.0508 33.1267 21.8129 32.8612 21.6322C32.5957 21.4515 32.3011 21.3316 31.9944 21.2794C31.6876 21.2271 31.3747 21.2435 31.0736 21.3277C30.7724 21.4118 30.4891 21.5621 30.2397 21.7698L23.1755 27.6252H16.0558C15.8053 27.6252 15.5651 27.5133 15.3879 27.3141C15.2108 27.1148 15.1113 26.8446 15.1113 26.5628C15.1113 26.281 15.2108 26.0108 15.3879 25.8115C15.5651 25.6123 15.8053 25.5003 16.0558 25.5003H20.6744C21.6188 25.5003 22.4895 24.7785 22.6442 23.7333C22.6899 23.4281 22.6758 23.1154 22.603 22.8169C22.5303 22.5185 22.4005 22.2414 22.2228 22.0051C22.0451 21.7689 21.8238 21.579 21.5742 21.4488C21.3246 21.3186 21.0528 21.2511 20.7777 21.2512H11.3327C9.73976 21.2508 8.19506 21.8662 6.95737 22.9943L4.21244 25.5003H0.944492C0.694523 25.5022 0.455275 25.6148 0.278515 25.8136C0.101756 26.0125 0.00170106 26.2816 0 26.5628V32.9375C0.00170106 33.2187 0.101756 33.4879 0.278515 33.6867C0.455275 33.8855 0.694523 33.9981 0.944492 34H21.4282C22.7383 33.9965 24.0136 33.5252 25.0704 32.654L33.0413 26.0422C33.5444 25.6243 33.8796 24.999 33.9733 24.3035C34.0671 23.608 33.9117 22.899 33.5413 22.3322Z" fill="white"/>
</svg>
