<svg width="161" height="156" viewBox="0 0 161 156" fill="none" xmlns="http://www.w3.org/2000/svg">
<path d="M83.6873 150.916L94.2065 143.553C104.22 136.544 111.972 126.765 116.51 115.416C121.048 104.067 122.177 91.6397 119.757 79.6586C119.637 79.0682 119.383 78.5133 119.015 78.0367C118.646 77.5601 118.173 77.1748 117.632 76.9104L81 59L44.3726 76.9104C43.8305 77.1742 43.3564 77.5593 42.9872 78.0359C42.6179 78.5125 42.3634 79.0678 42.2434 79.6586C39.8234 91.6397 40.9517 104.067 45.4901 115.416C50.0285 126.765 57.7797 136.544 67.7935 143.553L78.3127 150.916C79.1006 151.466 80.0387 151.762 81 151.762C81.9613 151.762 82.8994 151.466 83.6873 150.916V150.916Z" stroke="#00917C" stroke-width="8" stroke-linecap="round" stroke-linejoin="round"/>
<path d="M62.9995 104.971H66.9996V118.972C66.9996 119.502 67.2103 120.011 67.5854 120.386C67.9604 120.761 68.4691 120.972 68.9996 120.972H92.9999C93.5304 120.972 94.0391 120.761 94.4142 120.386C94.7892 120.011 94.9999 119.502 94.9999 118.972V104.971H99C99.3865 104.972 99.7648 104.86 100.089 104.649C100.413 104.439 100.669 104.139 100.826 103.785C100.984 103.432 101.036 103.041 100.976 102.659C100.915 102.277 100.745 101.92 100.486 101.633L82.4858 81.633C81.7278 80.789 80.2717 80.789 79.5137 81.633L61.5135 101.633C61.2549 101.921 61.0851 102.277 61.0246 102.659C60.9642 103.04 61.0157 103.432 61.1729 103.785C61.3301 104.138 61.5863 104.438 61.9105 104.649C62.2347 104.859 62.6129 104.971 62.9995 104.971ZM74.3057 100.253C75.1381 99.4314 76.2609 98.9705 77.4307 98.9705C78.6005 98.9705 79.7233 99.4314 80.5557 100.253L81.0038 100.693L81.4498 100.253C82.2826 99.4313 83.4056 98.9704 84.5758 98.9704C85.746 98.9704 86.869 99.4313 87.7018 100.253C88.115 100.651 88.4437 101.128 88.6682 101.655C88.8927 102.183 89.0084 102.75 89.0084 103.323C89.0084 103.897 88.8927 104.464 88.6682 104.992C88.4437 105.519 88.115 105.996 87.7018 106.393L81.0038 112.971L74.3057 106.393C73.8925 105.996 73.5638 105.519 73.3393 104.992C73.1148 104.464 72.9991 103.897 72.9991 103.323C72.9991 102.75 73.1148 102.183 73.3393 101.655C73.5638 101.128 73.8925 100.651 74.3057 100.253Z" fill="#00917C"/>
<path d="M24.7812 33H20.0938V23.25H10.9531V33H6.26562V10.25H10.9531V19.4688H20.0938V10.25H24.7812V33ZM27.8906 24.3906C27.8906 22.7135 28.2135 21.2188 28.8594 19.9062C29.5052 18.5938 30.4323 17.5781 31.6406 16.8594C32.8594 16.1406 34.2708 15.7812 35.875 15.7812C38.1562 15.7812 40.0156 16.4792 41.4531 17.875C42.901 19.2708 43.7083 21.1667 43.875 23.5625L43.9062 24.7188C43.9062 27.3125 43.1823 29.3958 41.7344 30.9688C40.2865 32.5312 38.3438 33.3125 35.9062 33.3125C33.4688 33.3125 31.5208 32.5312 30.0625 30.9688C28.6146 29.4062 27.8906 27.2812 27.8906 24.5938V24.3906ZM32.4062 24.7188C32.4062 26.3229 32.7083 27.5521 33.3125 28.4062C33.9167 29.25 34.7812 29.6719 35.9062 29.6719C37 29.6719 37.8542 29.2552 38.4688 28.4219C39.0833 27.5781 39.3906 26.2344 39.3906 24.3906C39.3906 22.8177 39.0833 21.599 38.4688 20.7344C37.8542 19.8698 36.9896 19.4375 35.875 19.4375C34.7708 19.4375 33.9167 19.8698 33.3125 20.7344C32.7083 21.5885 32.4062 22.9167 32.4062 24.7188ZM50.9219 16.0938L51.0625 17.9844C52.2604 16.5156 53.8802 15.7812 55.9219 15.7812C58.099 15.7812 59.5938 16.6406 60.4062 18.3594C61.5938 16.6406 63.2865 15.7812 65.4844 15.7812C67.3177 15.7812 68.6823 16.3177 69.5781 17.3906C70.474 18.4531 70.9219 20.0573 70.9219 22.2031V33H66.3906V22.2188C66.3906 21.2604 66.2031 20.5625 65.8281 20.125C65.4531 19.6771 64.7917 19.4531 63.8438 19.4531C62.4896 19.4531 61.5521 20.099 61.0312 21.3906L61.0469 33H56.5312V22.2344C56.5312 21.2552 56.3385 20.5469 55.9531 20.1094C55.5677 19.6719 54.9115 19.4531 53.9844 19.4531C52.7031 19.4531 51.776 19.9844 51.2031 21.0469V33H46.6875V16.0938H50.9219ZM82.1875 33.3125C79.7083 33.3125 77.6875 32.5521 76.125 31.0312C74.5729 29.5104 73.7969 27.4844 73.7969 24.9531V24.5156C73.7969 22.8177 74.125 21.3021 74.7812 19.9688C75.4375 18.625 76.3646 17.5938 77.5625 16.875C78.7708 16.1458 80.1458 15.7812 81.6875 15.7812C84 15.7812 85.8177 16.5104 87.1406 17.9688C88.474 19.4271 89.1406 21.4948 89.1406 24.1719V26.0156H78.375C78.5208 27.1198 78.9583 28.0052 79.6875 28.6719C80.4271 29.3385 81.3594 29.6719 82.4844 29.6719C84.224 29.6719 85.5833 29.0417 86.5625 27.7812L88.7812 30.2656C88.1042 31.224 87.1875 31.974 86.0312 32.5156C84.875 33.0469 83.5938 33.3125 82.1875 33.3125ZM81.6719 19.4375C80.776 19.4375 80.0469 19.7396 79.4844 20.3438C78.9323 20.9479 78.5781 21.8125 78.4219 22.9375H84.7031V22.5781C84.6823 21.5781 84.4115 20.8073 83.8906 20.2656C83.3698 19.7135 82.6302 19.4375 81.6719 19.4375ZM109.875 25.4219C109.698 27.8698 108.792 29.7969 107.156 31.2031C105.531 32.6094 103.385 33.3125 100.719 33.3125C97.8021 33.3125 95.5052 32.3333 93.8281 30.375C92.1615 28.4062 91.3281 25.7083 91.3281 22.2812V20.8906C91.3281 18.7031 91.7135 16.776 92.4844 15.1094C93.2552 13.4427 94.3542 12.1667 95.7812 11.2812C97.2188 10.3854 98.8854 9.9375 100.781 9.9375C103.406 9.9375 105.521 10.6406 107.125 12.0469C108.729 13.4531 109.656 15.4271 109.906 17.9688H105.219C105.104 16.5 104.693 15.4375 103.984 14.7812C103.286 14.1146 102.219 13.7812 100.781 13.7812C99.2188 13.7812 98.0469 14.3438 97.2656 15.4688C96.4948 16.5833 96.099 18.3177 96.0781 20.6719V22.3906C96.0781 24.849 96.4479 26.6458 97.1875 27.7812C97.9375 28.9167 99.1146 29.4844 100.719 29.4844C102.167 29.4844 103.245 29.1562 103.953 28.5C104.672 27.8333 105.083 26.8073 105.188 25.4219H109.875ZM122.453 33C122.245 32.5938 122.094 32.0885 122 31.4844C120.906 32.7031 119.484 33.3125 117.734 33.3125C116.078 33.3125 114.703 32.8333 113.609 31.875C112.526 30.9167 111.984 29.7083 111.984 28.25C111.984 26.4583 112.646 25.0833 113.969 24.125C115.302 23.1667 117.224 22.6823 119.734 22.6719H121.812V21.7031C121.812 20.9219 121.609 20.2969 121.203 19.8281C120.807 19.3594 120.177 19.125 119.312 19.125C118.552 19.125 117.953 19.3073 117.516 19.6719C117.089 20.0365 116.875 20.5365 116.875 21.1719H112.359C112.359 20.1927 112.661 19.2865 113.266 18.4531C113.87 17.6198 114.724 16.9688 115.828 16.5C116.932 16.0208 118.172 15.7812 119.547 15.7812C121.63 15.7812 123.281 16.3073 124.5 17.3594C125.729 18.401 126.344 19.8698 126.344 21.7656V29.0938C126.354 30.6979 126.578 31.9115 127.016 32.7344V33H122.453ZM118.719 29.8594C119.385 29.8594 120 29.7135 120.562 29.4219C121.125 29.1198 121.542 28.7188 121.812 28.2188V25.3125H120.125C117.865 25.3125 116.661 26.0938 116.516 27.6562L116.5 27.9219C116.5 28.4844 116.698 28.9479 117.094 29.3125C117.49 29.6771 118.031 29.8594 118.719 29.8594ZM139.312 20.3281C138.698 20.2448 138.156 20.2031 137.688 20.2031C135.979 20.2031 134.859 20.7812 134.328 21.9375V33H129.812V16.0938H134.078L134.203 18.1094C135.109 16.5573 136.365 15.7812 137.969 15.7812C138.469 15.7812 138.938 15.849 139.375 15.9844L139.312 20.3281ZM148.969 33.3125C146.49 33.3125 144.469 32.5521 142.906 31.0312C141.354 29.5104 140.578 27.4844 140.578 24.9531V24.5156C140.578 22.8177 140.906 21.3021 141.562 19.9688C142.219 18.625 143.146 17.5938 144.344 16.875C145.552 16.1458 146.927 15.7812 148.469 15.7812C150.781 15.7812 152.599 16.5104 153.922 17.9688C155.255 19.4271 155.922 21.4948 155.922 24.1719V26.0156H145.156C145.302 27.1198 145.74 28.0052 146.469 28.6719C147.208 29.3385 148.141 29.6719 149.266 29.6719C151.005 29.6719 152.365 29.0417 153.344 27.7812L155.562 30.2656C154.885 31.224 153.969 31.974 152.812 32.5156C151.656 33.0469 150.375 33.3125 148.969 33.3125ZM148.453 19.4375C147.557 19.4375 146.828 19.7396 146.266 20.3438C145.714 20.9479 145.359 21.8125 145.203 22.9375H151.484V22.5781C151.464 21.5781 151.193 20.8073 150.672 20.2656C150.151 19.7135 149.411 19.4375 148.453 19.4375Z" fill="#00917C"/>
</svg>
