<svg width="34" height="34" viewBox="0 0 34 34" fill="none" xmlns="http://www.w3.org/2000/svg">
<path d="M17 0C7.61148 0 0 7.06714 0 15.7857C0 19.547 1.42176 22.9955 3.78516 25.7079C2.95242 29.5261 0.179297 32.9375 0.146094 32.9754C0.0747447 33.0616 0.0270318 33.1697 0.00884756 33.2865C-0.00933673 33.4032 0.00280394 33.5235 0.0437703 33.6325C0.0847366 33.7415 0.152734 33.8344 0.239366 33.8997C0.325998 33.965 0.42747 33.9999 0.53125 34C4.93133 34 8.23438 31.5904 9.86797 30.1006C12.1485 31.0775 14.5646 31.5758 17 31.5714C26.3892 31.5714 34 24.5043 34 15.7857C34 7.06714 26.3892 0 17 0ZM23.375 17.6071C23.375 17.7682 23.319 17.9226 23.2194 18.0365C23.1198 18.1503 22.9846 18.2143 22.8438 18.2143H19.125V22.4643C19.125 22.6253 19.069 22.7797 18.9694 22.8936C18.8698 23.0075 18.7346 23.0714 18.5938 23.0714H15.4062C15.2654 23.0714 15.1302 23.0075 15.0306 22.8936C14.931 22.7797 14.875 22.6253 14.875 22.4643V18.2143H11.1562C11.0154 18.2143 10.8802 18.1503 10.7806 18.0365C10.681 17.9226 10.625 17.7682 10.625 17.6071V13.9643C10.625 13.8033 10.681 13.6488 10.7806 13.535C10.8802 13.4211 11.0154 13.3571 11.1562 13.3571H14.875V9.10714C14.875 8.94612 14.931 8.79169 15.0306 8.67783C15.1302 8.56397 15.2654 8.5 15.4062 8.5H18.5938C18.7346 8.5 18.8698 8.56397 18.9694 8.67783C19.069 8.79169 19.125 8.94612 19.125 9.10714V13.3571H22.8438C22.9846 13.3571 23.1198 13.4211 23.2194 13.535C23.319 13.6488 23.375 13.8033 23.375 13.9643V17.6071Z" fill="white"/>
</svg>
