<svg width="34" height="34" viewBox="0 0 34 34" fill="none" xmlns="http://www.w3.org/2000/svg">
<path d="M14.7333 12.7499C14.5092 12.7499 14.2901 12.8123 14.1037 12.929C13.9173 13.0458 13.772 13.2117 13.6863 13.4058C13.6005 13.6 13.578 13.8136 13.6218 14.0197C13.6655 14.2258 13.7734 14.4151 13.9319 14.5637C14.0904 14.7123 14.2924 14.8135 14.5122 14.8545C14.7321 14.8955 14.96 14.8745 15.167 14.7941C15.3741 14.7136 15.5511 14.5775 15.6757 14.4027C15.8002 14.228 15.8667 14.0226 15.8667 13.8124C15.8667 13.5307 15.7473 13.2604 15.5347 13.0611C15.3222 12.8619 15.0339 12.7499 14.7333 12.7499ZM31.9104 5.55685L18.3104 0.244374C17.8921 0.0960868 17.4505 0.01352 17.0035 0C16.5563 0.0132347 16.1145 0.095578 15.696 0.24371L2.09596 5.55619C1.47503 5.79728 0.944396 6.20572 0.571275 6.72977C0.198153 7.25382 -0.000665898 7.8699 1.67562e-06 8.49996C1.67562e-06 21.6816 8.11042 30.7938 15.6896 33.7555C16.1039 33.9169 16.5481 34 16.9968 34C17.4455 34 17.8897 33.9169 18.304 33.7555C24.373 31.3841 34 23.1956 34 8.49996C34.0004 7.87083 33.8022 7.25565 33.4303 6.73192C33.0585 6.20819 32.5297 5.79933 31.9104 5.55685ZM26.0667 16.9999H25.2082C23.1887 16.9999 22.1772 19.2889 23.6052 20.6277L24.213 21.1968C24.4255 21.3961 24.5449 21.6663 24.5449 21.9482C24.5449 22.23 24.4255 22.5003 24.213 22.6996C24.0004 22.8988 23.7121 23.0108 23.4115 23.0108C23.1109 23.0108 22.8226 22.8988 22.61 22.6996L22.003 22.1298C20.575 20.791 18.1333 21.7393 18.1333 23.6326V24.4374C18.1333 24.7192 18.0139 24.9894 17.8014 25.1887C17.5888 25.388 17.3006 25.4999 17 25.4999C16.6994 25.4999 16.4112 25.388 16.1986 25.1887C15.9861 24.9894 15.8667 24.7192 15.8667 24.4374V23.6326C15.8667 21.7393 13.425 20.791 11.997 22.1298L11.39 22.6996C11.2847 22.7982 11.1598 22.8765 11.0223 22.9299C10.8848 22.9833 10.7374 23.0108 10.5885 23.0108C10.4397 23.0108 10.2923 22.9833 10.1548 22.9299C10.0172 22.8765 9.89229 22.7982 9.78704 22.6996C9.68179 22.6009 9.5983 22.4837 9.54134 22.3548C9.48438 22.2259 9.45506 22.0877 9.45506 21.9482C9.45506 21.8086 9.48438 21.6704 9.54134 21.5415C9.5983 21.4126 9.68179 21.2955 9.78704 21.1968L10.3948 20.6277C11.8228 19.2889 10.8113 16.9999 8.79183 16.9999H7.93333C7.63276 16.9999 7.34449 16.888 7.13195 16.6887C6.91941 16.4895 6.8 16.2192 6.8 15.9374C6.8 15.6556 6.91941 15.3854 7.13195 15.1861C7.34449 14.9869 7.63276 14.8749 7.93333 14.8749H8.79183C10.8113 14.8749 11.8228 12.5859 10.3948 11.2472L9.78704 10.6781C9.57448 10.4788 9.45506 10.2085 9.45506 9.9267C9.45506 9.64487 9.57448 9.37459 9.78704 9.17531C9.99961 8.97603 10.2879 8.86408 10.5885 8.86408C10.8891 8.86408 11.1774 8.97603 11.39 9.17531L11.997 9.74508C13.425 11.0838 15.8667 10.1355 15.8667 8.24231V7.43747C15.8667 7.15568 15.9861 6.88543 16.1986 6.68617C16.4112 6.48692 16.6994 6.37497 17 6.37497C17.3006 6.37497 17.5888 6.48692 17.8014 6.68617C18.0139 6.88543 18.1333 7.15568 18.1333 7.43747V8.24231C18.1333 10.1355 20.575 11.0838 22.003 9.74508L22.61 9.17531C22.8226 8.97603 23.1109 8.86408 23.4115 8.86408C23.7121 8.86408 24.0004 8.97603 24.213 9.17531C24.4255 9.37459 24.5449 9.64487 24.5449 9.9267C24.5449 10.2085 24.4255 10.4788 24.213 10.6781L23.6052 11.2472C22.1772 12.5859 23.1887 14.8749 25.2082 14.8749H26.0667C26.3672 14.8749 26.6555 14.9869 26.8681 15.1861C27.0806 15.3854 27.2 15.6556 27.2 15.9374C27.2 16.2192 27.0806 16.4895 26.8681 16.6887C26.6555 16.888 26.3672 16.9999 26.0667 16.9999ZM19.2667 16.9999C19.0425 16.9999 18.8234 17.0622 18.637 17.179C18.4506 17.2957 18.3054 17.4617 18.2196 17.6558C18.1338 17.85 18.1114 18.0636 18.1551 18.2697C18.1988 18.4758 18.3068 18.6651 18.4653 18.8137C18.6238 18.9623 18.8257 19.0635 19.0456 19.1045C19.2654 19.1455 19.4933 19.1245 19.7004 19.044C19.9075 18.9636 20.0845 18.8274 20.209 18.6527C20.3335 18.478 20.4 18.2726 20.4 18.0624C20.4 17.7806 20.2806 17.5104 20.0681 17.3111C19.8555 17.1119 19.5672 16.9999 19.2667 16.9999Z" fill="white"/>
</svg>
